<?xml version="1.0" standalone="no"?><!DOCTYPE svg PUBLIC "-//W3C//DTD SVG 1.1//EN" "http://www.w3.org/Graphics/SVG/1.1/DTD/svg11.dtd"><svg t="1614826875960" class="icon" viewBox="0 0 1812 1024" version="1.1" xmlns="http://www.w3.org/2000/svg" p-id="6127" xmlns:xlink="http://www.w3.org/1999/xlink" width="353.90625" height="200"><defs><style type="text/css"></style></defs><path d="M571.776 318.749538l115.485538 0 0 19.692308-115.485538 0 0-19.692308Z" p-id="6128"></path><path d="M426.643692 431.891692l219.726769 0 0 19.692308-219.726769 0 0-19.692308Z" p-id="6129"></path><path d="M222.247385 429.863385l72.930462 0 0 19.692308-72.930462 0 0-19.692308Z" p-id="6130"></path><path d="M426.663385 664.260923l260.598154 0 0 19.692308-260.598154 0 0-19.692308Z" p-id="6131"></path><path d="M134.567385 549.090462l280.615385 0 0 19.692308-280.615385 0 0-19.692308Z" p-id="6132"></path><path d="M556.967385 549.090462l81.388308 0 0 19.692308-81.388308 0 0-19.692308Z" p-id="6133"></path><path d="M1559.433846 282.791385l-372.214154 0L1187.219692 257.28c0-132.765538-108.012308-240.777846-240.777846-240.777846l-17.988923 0c-27.145846 0-49.230769 22.084923-49.230769 49.230769l0 309.070769-40.930462 0c-34.776615 0-63.064615 28.297846-63.064615 63.064615l0 148.263385c0 34.766769 28.297846 63.054769 63.064615 63.054769l40.930462 0 0 309.080615c0 27.145846 22.084923 49.230769 49.230769 49.230769l17.988923 0c132.765538 0 240.777846-108.012308 240.777846-240.777846l0-25.511385 372.214154 0c126.385231 0 229.208615-102.823385 229.208615-229.208615S1685.819077 282.791385 1559.433846 282.791385zM879.232 609.811692l-40.940308 0c-13.056 0-23.68-10.614154-23.68-23.670154L814.611692 437.868308c0-13.056 10.624-23.68 23.68-23.68l40.940308 0L879.232 609.811692zM1147.835077 766.72c0 111.044923-90.348308 201.393231-201.393231 201.393231l-17.988923 0c-5.435077 0-9.846154-4.411077-9.846154-9.846154L918.606769 741.208615l229.228308 0L1147.835077 766.72zM1187.219692 701.824l-268.603077 0L918.616615 322.176l268.603077 0L1187.219692 701.824zM1147.835077 282.791385 918.606769 282.791385 918.606769 65.732923c0-5.425231 4.411077-9.846154 9.846154-9.846154l17.988923 0c111.044923 0 201.393231 90.348308 201.393231 201.393231L1147.835077 282.791385zM1559.433846 701.824l-372.214154 0L1187.219692 322.176l372.214154 0c104.674462 0 189.824 85.149538 189.824 189.824C1749.257846 616.674462 1664.108308 701.824 1559.433846 701.824z" p-id="6134"></path><path d="M1580.839385 432.699077c-43.716923 0-79.300923 35.574154-79.300923 79.300923 0 43.716923 35.574154 79.300923 79.300923 79.300923 43.726769 0 79.310769-35.574154 79.310769-79.300923C1660.140308 468.273231 1624.566154 432.699077 1580.839385 432.699077zM1580.839385 551.916308c-22.006154 0-39.916308-17.900308-39.916308-39.916308s17.900308-39.916308 39.916308-39.916308 39.926154 17.910154 39.926154 39.916308S1602.845538 551.916308 1580.839385 551.916308z" p-id="6135"></path></svg>