<?xml version="1.0" standalone="no"?><!DOCTYPE svg PUBLIC "-//W3C//DTD SVG 1.1//EN" "http://www.w3.org/Graphics/SVG/1.1/DTD/svg11.dtd"><svg class="icon" width="200px" height="193.57px" viewBox="0 0 1058 1024" version="1.1" xmlns="http://www.w3.org/2000/svg"><path fill="#cccccc" d="M0 303.004471l40.874319 53.5768c0 0 84.263981-66.436489 112.372936-33.202524 28.077513 33.202524 135.325438 434.242477 171.13763 508.224994 31.253133 64.8644 117.435063 150.637587 211.949065 89.388992 94.451119-61.248595 408.585981-329.447011 464.803891-646.128658 56.186468-316.618764-378.024567-250.2766-423.992455 25.56217 114.951162-69.014716 176.294082 28.046071 117.497946 137.935106-58.70181 109.763267-112.372936 181.387651-140.450449 181.387651-28.046071 0-49.615135-73.479449-81.748638-201.856252-33.202524-132.747211-33.013873-371.861978-171.074746-344.75916C171.13763 98.632876 0 303.004471 0 303.004471z" /></svg>